<?xml version="1.0" encoding="UTF-8"?>
<svg xmlns="http://www.w3.org/2000/svg" xmlns:xlink="http://www.w3.org/1999/xlink" width="40px" height="30px" viewBox="0 0 40 30" version="1.1">
<g id="surface1">
<path style=" stroke:none;fill-rule:nonzero;fill:rgb(96.078431%,64.313725%,14.509804%);fill-opacity:1;" d="M 1.160156 15.117188 C 1.160156 22.664062 1.207031 28.828125 1.253906 28.828125 C 1.300781 28.828125 2.066406 28.5 2.949219 28.101562 C 6.3125 26.578125 7.753906 26.226562 11.398438 26.085938 C 14.671875 25.96875 14.855469 25.96875 16.0625 26.53125 C 16.761719 26.859375 17.710938 27.46875 18.175781 27.890625 C 18.828125 28.453125 19.035156 28.546875 19.035156 28.242188 C 19.035156 27.210938 17.292969 25.054688 15.714844 24.140625 C 14.554688 23.484375 14.554688 23.460938 15.113281 23.226562 C 16.085938 22.851562 17.109375 21.867188 17.667969 20.695312 C 18.175781 19.617188 18.222656 19.265625 18.339844 13.125 C 18.5 6 18.523438 5.859375 20.105469 4.476562 C 20.917969 3.75 21.75 3.585938 22.914062 3.890625 C 23.421875 4.03125 23.398438 4.078125 22.402344 5.203125 C 20.195312 7.6875 19.152344 10.921875 19.3125 14.765625 C 19.5 18.726562 20.871094 21.5625 23.191406 22.78125 L 24.398438 23.414062 L 23.632812 23.8125 C 23.214844 24.023438 22.519531 24.445312 22.101562 24.773438 C 21.21875 25.453125 19.730469 27.585938 19.730469 28.195312 C 19.730469 28.546875 19.894531 28.5 20.730469 27.820312 C 22.519531 26.34375 23.074219 26.15625 26.046875 26.0625 C 29.644531 25.945312 32.429688 26.53125 35.9375 28.148438 C 36.75 28.523438 37.445312 28.828125 37.515625 28.828125 C 37.5625 28.828125 37.605469 22.664062 37.605469 15.117188 L 37.605469 1.40625 L 1.160156 1.40625 Z M 3.714844 13.828125 C 3.714844 26.835938 3.644531 26.132812 5.015625 25.453125 C 6.199219 24.84375 9.914062 24.140625 11.816406 24.140625 C 14.53125 24.140625 17.269531 25.382812 18.128906 27 C 18.339844 27.398438 18.222656 27.351562 17.363281 26.765625 C 14.183594 24.5625 9.867188 24.585938 3.875 26.859375 C 3.414062 27.046875 2.949219 27.1875 2.902344 27.1875 C 2.832031 27.1875 2.785156 21.492188 2.785156 14.53125 C 2.785156 2.039062 2.785156 1.875 3.25 1.875 C 3.714844 1.875 3.714844 2.039062 3.714844 13.828125 Z M 35.980469 14.53125 C 35.980469 21.492188 35.9375 27.1875 35.867188 27.1875 C 35.820312 27.1875 35.214844 26.976562 34.542969 26.742188 C 31.339844 25.570312 28.4375 25.007812 26.277344 25.125 C 24.769531 25.21875 24.121094 25.382812 22.65625 26.085938 C 20.707031 27.023438 20.453125 26.8125 22.03125 25.617188 C 23.539062 24.445312 25.164062 24.070312 27.949219 24.210938 C 30.085938 24.304688 31.269531 24.585938 34.660156 25.710938 C 35.03125 25.828125 35.054688 25.171875 35.054688 13.851562 C 35.054688 2.039062 35.054688 1.875 35.519531 1.875 C 35.980469 1.875 35.980469 2.039062 35.980469 14.53125 Z M 10.816406 2.578125 C 10.308594 2.835938 9.632812 3.28125 9.332031 3.585938 C 8.03125 4.804688 7.382812 7.21875 7.871094 9.046875 C 8.195312 10.242188 9.679688 11.976562 10.910156 12.609375 C 11.816406 13.054688 11.839844 13.078125 11.257812 13.21875 C 10.445312 13.429688 9.101562 14.671875 8.542969 15.773438 C 7.542969 17.765625 8.078125 21.117188 9.65625 22.570312 L 10.332031 23.203125 L 9.496094 23.203125 C 8.613281 23.203125 6.664062 23.53125 5.988281 23.789062 C 5.59375 23.953125 5.570312 23.34375 5.570312 13.03125 L 5.570312 2.109375 L 8.660156 2.109375 L 11.722656 2.132812 Z M 25.023438 2.789062 L 23.933594 3.492188 L 21.542969 2.8125 L 19.152344 2.15625 L 22.609375 2.132812 L 26.09375 2.109375 Z M 33.195312 12.984375 L 33.195312 23.859375 L 32.40625 23.648438 C 31.988281 23.53125 30.851562 23.34375 29.921875 23.25 L 28.207031 23.085938 L 29.0625 22.570312 C 31.734375 20.976562 32.082031 16.617188 29.761719 14.015625 C 28.691406 12.820312 27.902344 12.421875 26.535156 12.421875 C 23.726562 12.421875 21.984375 14.835938 23.097656 17.203125 C 23.75 18.585938 25.328125 19.125 26.671875 18.398438 C 27.765625 17.835938 27.972656 16.640625 27.066406 16.054688 C 26.09375 15.398438 25.164062 16.289062 25.929688 17.15625 C 26.277344 17.554688 26.277344 17.625 26 17.8125 C 24.769531 18.585938 23.792969 16.921875 24.375 15.117188 C 24.675781 14.15625 25.769531 13.359375 26.71875 13.359375 C 28.972656 13.359375 29.574219 18.960938 27.601562 21.398438 C 25.882812 23.507812 23.398438 22.195312 22.285156 18.5625 C 21.078125 14.625 21.683594 9.09375 23.726562 5.71875 C 24.398438 4.59375 24.5625 4.429688 25.070312 4.546875 C 25.394531 4.640625 26.605469 4.757812 27.789062 4.828125 C 29.550781 4.96875 30.015625 4.921875 30.503906 4.59375 C 31.222656 4.125 31.480469 3.28125 31.105469 2.601562 C 30.875 2.132812 30.921875 2.109375 32.035156 2.109375 L 33.195312 2.109375 Z M 29.226562 2.554688 C 29.691406 2.859375 29.367188 3.46875 28.625 3.773438 C 27.855469 4.054688 25.1875 3.960938 25.210938 3.632812 C 25.234375 3.515625 25.699219 3.164062 26.230469 2.882812 C 27.253906 2.34375 28.644531 2.179688 29.226562 2.554688 Z M 18.757812 2.835938 C 19.359375 3 19.894531 3.140625 19.917969 3.1875 C 19.964844 3.210938 19.570312 3.632812 19.035156 4.125 C 17.898438 5.179688 16.898438 6.585938 16.480469 7.734375 L 16.179688 8.578125 L 15.53125 7.921875 C 15.019531 7.382812 14.695312 7.265625 13.8125 7.265625 C 12.023438 7.265625 10.632812 8.390625 11.050781 9.492188 C 11.210938 9.890625 12.140625 10.195312 12.652344 9.984375 C 13.046875 9.84375 13.117188 8.789062 12.769531 8.554688 C 12.375 8.296875 12.746094 7.96875 13.441406 7.96875 C 14.324219 7.96875 14.625 8.367188 14.625 9.515625 C 14.625 10.335938 14.507812 10.617188 13.8125 11.226562 C 12.1875 12.65625 10.050781 11.882812 9.65625 9.703125 C 9.191406 7.3125 11.234375 4.078125 13.835938 3.046875 C 15.136719 2.53125 17.15625 2.460938 18.757812 2.835938 Z M 15.855469 12.820312 L 15.996094 14.039062 L 15.160156 13.453125 C 14.695312 13.148438 14.207031 12.890625 14.066406 12.890625 C 13.929688 12.890625 14.136719 12.679688 14.53125 12.445312 C 14.949219 12.1875 15.34375 11.859375 15.4375 11.71875 C 15.667969 11.34375 15.691406 11.4375 15.855469 12.820312 Z M 14.183594 14.507812 C 15.25 15.609375 15.019531 17.578125 13.8125 17.578125 C 13.324219 17.578125 13.230469 17.460938 13.230469 16.875 C 13.230469 16.335938 13.09375 16.101562 12.652344 15.890625 C 12.140625 15.65625 11.980469 15.679688 11.5625 16.125 C 11.144531 16.546875 11.097656 16.734375 11.28125 17.273438 C 11.582031 18.164062 12.417969 18.5625 13.765625 18.445312 C 14.648438 18.375 15.066406 18.1875 15.714844 17.554688 L 16.527344 16.757812 L 16.4375 18.65625 C 16.273438 21.820312 15.25 22.875 13 22.265625 C 11.257812 21.796875 9.867188 19.921875 9.75 17.90625 C 9.632812 16.101562 9.75 15.726562 10.632812 14.765625 C 11.421875 13.96875 11.675781 13.828125 12.511719 13.828125 C 13.300781 13.828125 13.648438 13.96875 14.183594 14.507812 Z M 14.183594 14.507812 "/>
</g>
</svg>
