<?xml version="1.0" standalone="no"?>
<!DOCTYPE svg PUBLIC "-//W3C//DTD SVG 20010904//EN"
 "http://www.w3.org/TR/2001/REC-SVG-20010904/DTD/svg10.dtd">
<svg version="1.0" xmlns="http://www.w3.org/2000/svg"
 width="168.000000pt" height="128.000000pt" viewBox="0 0 168.000000 128.000000"
 preserveAspectRatio="xMidYMid meet">

<g transform="translate(0.000000,128.000000) scale(0.100000,-0.100000)"
fill="#f5a425" stroke="none">
<path d="M50 635 c0 -322 2 -585 4 -585 2 0 35 14 73 31 145 65 207 80 364 86
141 5 149 5 201 -19 30 -14 71 -40 91 -58 28 -24 37 -28 37 -15 0 44 -75 136
-143 175 -50 28 -50 29 -26 39 42 16 86 58 110 108 22 46 24 61 29 323 7 304
8 310 76 369 35 31 71 38 121 25 22 -6 21 -8 -22 -56 -95 -106 -140 -244 -133
-408 8 -169 67 -290 167 -342 l52 -27 -33 -17 c-18 -9 -48 -27 -66 -41 -38
-29 -102 -120 -102 -146 0 -15 7 -13 43 16 77 63 101 71 229 75 155 5 275 -20
426 -89 35 -16 65 -29 68 -29 2 0 4 263 4 585 l0 585 -785 0 -785 0 0 -585z
m110 55 c0 -555 -3 -525 56 -496 51 26 211 56 293 56 117 0 235 -53 272 -122
9 -17 4 -15 -33 10 -137 94 -323 93 -581 -4 -20 -8 -40 -14 -42 -14 -3 0 -5
243 -5 540 0 533 0 540 20 540 20 0 20 -7 20 -510z m1390 -30 c0 -297 -2 -540
-5 -540 -2 0 -28 9 -57 19 -138 50 -263 74 -356 69 -65 -4 -93 -11 -156 -41
-84 -40 -95 -31 -27 20 65 50 135 66 255 60 92 -4 143 -16 289 -64 16 -5 17
23 17 506 0 504 0 511 20 511 20 0 20 -7 20 -540z m-1084 510 c-22 -11 -51
-30 -64 -43 -56 -52 -84 -155 -63 -233 14 -51 78 -125 131 -152 39 -19 40 -20
15 -26 -35 -9 -93 -62 -117 -109 -43 -85 -20 -228 48 -290 l29 -27 -36 0 c-38
0 -122 -14 -151 -25 -17 -7 -18 19 -18 459 l0 466 133 0 132 -1 -39 -19z m612
-9 l-47 -30 -103 29 -103 28 149 1 150 1 -46 -29z m352 -435 l0 -464 -34 9
c-18 5 -67 13 -107 17 l-74 7 37 22 c115 68 130 254 30 365 -46 51 -80 68
-139 68 -121 0 -196 -103 -148 -204 28 -59 96 -82 154 -51 47 24 56 75 17 100
-42 28 -82 -10 -49 -47 15 -17 15 -20 3 -28 -53 -33 -95 38 -70 115 13 41 60
75 101 75 97 0 123 -239 38 -343 -74 -90 -181 -34 -229 121 -52 168 -26 404
62 548 29 48 36 55 58 50 14 -4 66 -9 117 -12 76 -6 96 -4 117 10 31 20 42 56
26 85 -10 20 -8 21 40 21 l50 0 0 -464z m-171 445 c20 -13 6 -39 -26 -52 -33
-12 -148 -8 -147 6 1 5 21 20 44 32 44 23 104 30 129 14z m-451 -12 c26 -7 49
-13 50 -15 2 -1 -15 -19 -38 -40 -49 -45 -92 -105 -110 -154 l-13 -36 -28 28
c-22 23 -36 28 -74 28 -77 0 -137 -48 -119 -95 7 -17 47 -30 69 -21 17 6 20
51 5 61 -17 11 -1 25 29 25 38 0 51 -17 51 -66 0 -35 -5 -47 -35 -73 -70 -61
-162 -28 -179 65 -20 102 68 240 180 284 56 22 143 25 212 9z m-125 -426 l6
-52 -36 25 c-20 13 -41 24 -47 24 -6 0 3 9 20 19 18 11 35 25 39 31 10 16 11
12 18 -47z m-72 -72 c46 -47 36 -131 -16 -131 -21 0 -25 5 -25 30 0 23 -6 33
-25 42 -22 10 -29 9 -47 -10 -18 -18 -20 -26 -12 -49 13 -38 49 -55 107 -50
38 3 56 11 84 38 l35 34 -4 -81 c-7 -135 -51 -180 -148 -154 -75 20 -135 100
-140 186 -5 77 0 93 38 134 34 34 45 40 81 40 34 0 49 -6 72 -29z"/>
</g>
</svg>
